<?xml version="1.0" encoding="utf-8"?>
<!-- Generator: Adobe Illustrator 27.0.0, SVG Export Plug-In . SVG Version: 6.00 Build 0)  -->
<svg version="1.1" id="Layer_1" xmlns="http://www.w3.org/2000/svg" xmlns:xlink="http://www.w3.org/1999/xlink" x="0px" y="0px"
	 viewBox="0 0 171 36" style="enable-background:new 0 0 171 36;" xml:space="preserve">
<style type="text/css">
	.st0{fill:#10B981;}
	.st1{fill:none;stroke:#008CBF;stroke-width:0.75;stroke-miterlimit:10;}
	.st2{fill:#064E3B;}
	.st3{fill:#047857;}
	.st4{fill:#FFFFFF;}
</style>
<path class="st0" d="M5.2,31.1v-18c0-5.9,4.7-10.6,10.6-10.6l0,0c6.1,0,11,4.9,11,11v17.6"/>
<path class="st1" d="M24.6,15.7"/>
<path class="st1" d="M7.3,15.7"/>
<path class="st2" d="M9.9,31.2H4.7c-0.3,0-0.6-0.3-0.6-0.6v-3.9c0-0.2,0.2-0.4,0.4-0.4h5.1c0.2,0,0.3,0.1,0.3,0.3L9.9,31.2H22"/>
<path class="st3" d="M22,12.6C22,8.9,19.1,6,16.1,6h-0.3c-3.1,0-6,2.9-6,6.6H22z"/>
<path class="st1" d="M9.9,31.2"/>
<path class="st2" d="M22,31.2v-4.6c0-0.2,0.1-0.3,0.3-0.3h5.1c0.2,0,0.4,0.2,0.4,0.4v3.9c0,0.3-0.3,0.6-0.6,0.6H22"/>
<path class="st3" d="M22,16.5v4c0,3.7-2.9,6.6-6,6.6h-0.3c-3,0-5.9-2.8-6-6.5v-4.1H22z"/>
<g>
	<g>
		<path class="st4" d="M32.4,23.8l3.1-2.3c0.7,1.4,1.8,2,2.8,2c1.6,0,2.5-0.8,2.5-3.5V7h4.5v13.4c0,3.9-2,7.1-6.5,7.1
			C35.8,27.5,33.7,26.3,32.4,23.8z"/>
		<path class="st4" d="M49.4,21.3v-9.5H54v8.9c0,2.2,0.6,2.9,1.9,2.9c1.1,0,1.8-0.5,2.7-1.7V11.8h4.5v15.3h-3.7L59.1,25H59
			c-1.3,1.5-2.7,2.5-4.8,2.5C50.8,27.5,49.4,25.1,49.4,21.3z"/>
		<path class="st4" d="M67.1,5.5h4.4v12.4h0.1l4.9-6.1h4.9l-5.4,6.3l5.8,9h-4.9l-3.4-6l-1.9,2.2v3.8h-4.4V5.5z"/>
		<path class="st4" d="M83.1,19.4c0-5,3.5-8,7.2-8c4.4,0,6.5,3.2,6.5,7.4c0,0.8-0.1,1.6-0.2,2h-9.2c0.4,2.2,1.9,3.2,4,3.2
			c1.2,0,2.2-0.4,3.3-1l1.5,2.7c-1.6,1.1-3.6,1.7-5.4,1.7C86.5,27.5,83.1,24.5,83.1,19.4z M93,17.8c0-1.7-0.7-2.9-2.5-2.9
			c-1.4,0-2.7,1-3,2.9H93z"/>
		<path class="st4" d="M100.4,7h6.9c4.2,0,7.4,1.1,7.4,5c0,1.8-1,3.7-2.7,4.3v0.1c2.1,0.5,3.6,2,3.6,4.7c0,4.1-3.5,5.9-7.8,5.9h-7.5
			V7z M107.1,15c2.2,0,3.2-0.9,3.2-2.4c0-1.5-1-2.2-3.2-2.2h-2.2V15H107.1z M107.5,23.6c2.5,0,3.8-0.9,3.8-2.7
			c0-1.8-1.3-2.5-3.8-2.5h-2.5v5.2H107.5z"/>
		<path class="st4" d="M117.8,19.4c0-5.1,3.6-8,7.5-8s7.5,2.9,7.5,8c0,5.1-3.6,8-7.5,8S117.8,24.5,117.8,19.4z M128.1,19.4
			c0-2.7-0.9-4.4-2.8-4.4s-2.8,1.7-2.8,4.4c0,2.6,0.9,4.4,2.8,4.4S128.1,22.1,128.1,19.4z"/>
		<path class="st4" d="M138.9,19.1l-4.4-7.3h4.9l1.4,2.5c0.4,0.9,0.9,1.8,1.3,2.6h0.1c0.3-0.9,0.7-1.8,1-2.6l1-2.5h4.7l-4.4,7.9
			l4.7,7.5h-4.9l-1.5-2.5c-0.5-0.9-0.9-1.8-1.4-2.7h-0.1c-0.4,0.9-0.8,1.8-1.2,2.7l-1.2,2.5h-4.7L138.9,19.1z"/>
		<path class="st4" d="M150.9,19.4c0-5,3.1-8,6.4-8c1.7,0,2.7,0.6,3.8,1.6l-0.2-2.3V5.5h4.5v21.6h-3.7l-0.3-1.5h-0.1
			c-1.1,1.1-2.6,1.9-4.1,1.9C153.3,27.5,150.9,24.4,150.9,19.4z M160.8,22.4v-6.3c-0.8-0.7-1.7-1-2.5-1c-1.5,0-2.8,1.4-2.8,4.3
			c0,3,1,4.4,2.8,4.4C159.3,23.8,160.1,23.4,160.8,22.4z"/>
	</g>
</g>
</svg>
