<?xml version="1.0" encoding="utf-8"?>
<!-- Generator: Adobe Illustrator 27.0.0, SVG Export Plug-In . SVG Version: 6.00 Build 0)  -->
<svg version="1.1" id="Layer_1" xmlns="http://www.w3.org/2000/svg" xmlns:xlink="http://www.w3.org/1999/xlink" x="0px" y="0px"
	 viewBox="0 0 171 36" style="enable-background:new 0 0 171 36;" xml:space="preserve">
<style type="text/css">
	.st0{fill:#FFFFFF;}
	.st1{fill:none;stroke:#10B981;stroke-width:0.75;stroke-miterlimit:10;}
	.st2{fill:none;stroke:#10B981;stroke-width:0.5;stroke-miterlimit:10;}
</style>
<g>
	<g>
		<path class="st0" d="M45,5.8h4.5v16.9c0,6.9-3.3,9-7.9,9c-1.2,0-2.6-0.2-3.4-0.5l0.5-3.7c0.6,0.2,1.5,0.4,2.5,0.4
			c2.4,0,3.9-1.1,3.9-5.2V5.8z"/>
		<path class="st0" d="M69.3,25.9c0,2.1,0.1,4,0.2,5.5h-3.9l-0.2-2.5h-0.1c-0.8,1.2-2.5,2.9-5.4,2.9c-3.4,0-5.9-2.2-5.9-7.8v-11h4.5
			v10.3c0,2.9,0.8,4.9,3,4.9c1.7,0,2.7-1.2,3.1-2.3c0.2-0.4,0.2-0.9,0.2-1.5V12.9h4.5V25.9z"/>
		<path class="st0" d="M78.4,21.1L78.4,21.1c0.5-0.8,0.9-1.5,1.4-2.2l4-5.9H89l-6.2,7.6l7,10.8h-5.4l-4.7-8.1L78.4,25v6.3h-4.5V4.7
			h4.5V21.1z"/>
		<path class="st0" d="M95.1,23.4c0.1,3.6,2.5,4.9,5.2,4.9c1.9,0,3.3-0.3,4.6-0.8l0.7,3.1c-1.5,0.6-3.5,1.1-5.9,1.1
			c-5.6,0-8.8-3.6-8.8-9.3c0-5.4,3-9.9,8.4-9.9c5.4,0,7.3,4.5,7.3,8.8c0,0.9-0.1,1.6-0.1,2H95.1z M102.2,20.2c0-2.1-0.8-4.6-3.4-4.6
			c-2.5,0-3.6,2.6-3.8,4.6H102.2z"/>
		<path class="st0" d="M110.2,6.2c1.5-0.3,3.9-0.5,6.3-0.5c3.1,0,5.2,0.4,6.9,1.7c1.5,1,2.4,2.6,2.4,4.7c0,2.4-1.4,4.5-4.1,5.5v0.1
			c2.8,0.7,5,2.9,5,6.3c0,2.2-0.9,4-2.3,5.2c-1.7,1.6-4.6,2.4-8.9,2.4c-2.4,0-4.1-0.2-5.3-0.3V6.2z M114.6,16.3h2
			c2.9,0,4.6-1.6,4.6-3.8c0-2.3-1.6-3.6-4.4-3.6c-1.1,0-1.8,0.1-2.3,0.2V16.3z M114.6,28.1c0.5,0.1,1.2,0.1,2.1,0.1
			c2.8,0,5.2-1.2,5.2-4.3c0-3-2.4-4.3-5.4-4.3h-2V28.1z"/>
		<path class="st0" d="M146.3,22c0,7-4.5,9.7-8.6,9.7c-4.8,0-8.4-3.5-8.4-9.5c0-6.2,3.8-9.7,8.7-9.7C143,12.5,146.3,16.3,146.3,22z
			 M133.9,22.2c0,3.4,1.4,6.3,4,6.3c2.5,0,3.9-2.9,3.9-6.3c0-2.8-1-6.3-3.9-6.3C134.9,15.9,133.9,19.2,133.9,22.2z"/>
		<path class="st0" d="M153,12.9l1.9,3.5c0.5,1,1,2,1.5,2.9h0.1c0.5-1,0.9-2,1.4-3l1.8-3.5h4.8l-5.6,8.9l5.7,9.5h-5l-2-3.7
			c-0.5-1-1-1.9-1.5-3H156c-0.5,1-1,2-1.5,3l-1.9,3.7h-4.8l5.7-9.3l-5.6-9.1H153z"/>
	</g>
</g>
<path class="st1" d="M5.2,26.2V13.1c0-5.9,4.7-10.6,10.6-10.6h0c6.1,0,11,4.9,11,11v12.7"/>
<path class="st2" d="M9.9,31.2v-4.1v-14c0-3.2,2.7-5.8,6-5.8h0c3.4,0,6.2,2.7,6.2,6v17.8"/>
<line class="st2" x1="24.4" y1="15.7" x2="24.4" y2="26.3"/>
<path class="st2" d="M7.5,13.4c0-4.7,3.8-8.6,8.5-8.6h0.2c4.9,0,8.3,3.8,8.3,8.6"/>
<line class="st2" x1="7.5" y1="26.2" x2="7.5" y2="15.7"/>
<path class="st1" d="M24.6,15.7"/>
<path class="st1" d="M7.3,15.7"/>
<path class="st1" d="M9.9,31.2H4.7c-0.3,0-0.6-0.3-0.6-0.6v-3.9c0-0.2,0.2-0.4,0.4-0.4h5.3"/>
<path class="st1" d="M22,31.2h5.2c0.3,0,0.6-0.3,0.6-0.6v-3.9c0-0.2-0.2-0.4-0.4-0.4H22"/>
<line class="st2" x1="5.2" y1="13.5" x2="9.9" y2="13.5"/>
<line class="st2" x1="9.9" y1="14.6" x2="5.2" y2="14.6"/>
<line class="st2" x1="22" y1="13.5" x2="26.7" y2="13.5"/>
<line class="st2" x1="26.7" y1="14.6" x2="22" y2="14.6"/>
<line class="st1" x1="9.9" y1="31.2" x2="22" y2="31.2"/>
<path class="st2" d="M11.5,13.3h9.2v0c0-2.2-2.4-3.9-4.7-3.9l0,0C13.7,9.4,11.5,11.1,11.5,13.3L11.5,13.3z"/>
<path class="st2" d="M11.5,17h9.2v8.1c0,2.4-1.9,4.3-4.3,4.3h-0.6c-2.4,0-4.3-1.9-4.3-4.3V17z"/>
<line class="st2" x1="10.1" y1="15.7" x2="5.4" y2="15.7"/>
<line class="st2" x1="27" y1="15.7" x2="22.3" y2="15.7"/>
</svg>
