<?xml version="1.0" encoding="utf-8"?>
<!-- Generator: Adobe Illustrator 27.0.0, SVG Export Plug-In . SVG Version: 6.00 Build 0)  -->
<svg version="1.1" id="Capa_1" xmlns="http://www.w3.org/2000/svg" xmlns:xlink="http://www.w3.org/1999/xlink" x="0px" y="0px"
	 viewBox="0 0 800 800" style="enable-background:new 0 0 800 800;" xml:space="preserve">
<style type="text/css">
	.st0{fill:#FFFFFF;}
</style>
<g>
	<path class="st0" d="M797.5,305.9c-6-18.5-22-31.9-41.2-34.7L541.7,240l-96-194.4c-8.6-17.4-26.3-28.4-45.8-28.4
		c-19.4,0-37.2,11-45.8,28.4l-96,194.4L43.7,271.2c-19.2,2.8-35.2,16.3-41.2,34.7c-6,18.5-1,38.8,12.9,52.3l155.3,151.4L134,723.3
		c-3.3,19.1,4.6,38.5,20.3,49.9s36.5,12.9,53.7,3.9L400,676.2l191.9,100.9c7.5,3.9,15.6,5.9,23.7,5.9c10.6,0,21.1-3.3,30-9.7
		c15.7-11.4,23.6-30.8,20.3-49.9l-36.7-213.7l155.3-151.4C798.5,344.6,803.5,324.4,797.5,305.9z"/>
</g>
</svg>
