<?xml version="1.0" encoding="utf-8"?>
<!-- Generator: Adobe Illustrator 27.0.0, SVG Export Plug-In . SVG Version: 6.00 Build 0)  -->
<svg version="1.1" id="Layer_1" xmlns="http://www.w3.org/2000/svg" xmlns:xlink="http://www.w3.org/1999/xlink" x="0px" y="0px"
	 viewBox="0 0 36 36" style="enable-background:new 0 0 36 36;" xml:space="preserve">
<style type="text/css">
	.st0{fill-rule:evenodd;clip-rule:evenodd;fill:#53B976;}
</style>
<g id="g124" transform="matrix(1.8,0,0,1.8,-634.15084,-123.07351)">
	<path id="path126" class="st0" d="M361.4,71.3c-0.1,0.1-0.2,0.3-0.2,0.4c0,0,0.2,0.3,0.4,0.5c0.5,0.5,0.5,0.6,0.6,0.9
		c0.4,0.8,0.2,1.9-0.5,2.5c-0.1,0.1-0.3,0.3-0.6,0.5c-0.7,0.6-1,0.9-1.1,1.2c0,0.1,0,0.2,0,0.3c0,0.3,0,0.3,0.8,1.3
		c1.1,1.3,1.9,2.3,2,2.3l0.1,0.1l-0.1,0c-1.1-0.5-2.3-0.7-2.8-0.5c-0.1,0.1-0.2,0.1-0.3,0.3c-0.2,0.3-0.1,0.8,0.1,1.6
		c0.2,0.7,0.7,1.5,1.1,2.2c0.2,0.3,0.5,0.7,0.6,0.7c0.1,0.1,0.1,0,0.2,0c0.1-0.1,0.1-0.1-0.1-0.3c-0.4-0.6-0.6-1.8-0.4-2.5
		c0.1-0.3,0.2-0.5,0.4-0.6c0.6-0.3,1.9,0.1,2.4,0.6c0,0,0.1,0.1,0.2,0.1c0.1,0.1,0.3,0,0.4-0.2c0.1-0.1,0-0.2-0.1-0.5
		c-0.3-0.4-1.4-1.6-1.5-1.8c-0.4-0.4-0.5-0.8-0.6-1.3c0-0.6,0.2-1.3,0.7-1.8c0.1-0.1,0.3-0.3,0.6-0.5c0.7-0.6,1-1,1.2-1.3
		c0.1-0.3,0-0.5-0.1-0.7c-0.1-0.1-0.8-0.9-1.6-1.9c-1.1-1.3-1.5-1.8-1.6-1.8C361.5,71.2,361.4,71.2,361.4,71.3z"/>
</g>
</svg>
