<?xml version="1.0" encoding="utf-8"?>
<!-- Generator: Adobe Illustrator 27.0.0, SVG Export Plug-In . SVG Version: 6.00 Build 0)  -->
<svg version="1.1" id="Layer_1" xmlns="http://www.w3.org/2000/svg" xmlns:xlink="http://www.w3.org/1999/xlink" x="0px" y="0px"
	 viewBox="0 0 32 32" style="enable-background:new 0 0 32 32;" xml:space="preserve">
<style type="text/css">
	.st0{fill:#10B981;}
	.st1{fill:none;stroke:#008CBF;stroke-width:0.75;stroke-miterlimit:10;}
	.st2{fill:#064E3B;}
	.st3{fill:#047857;}
</style>
<path class="st0" d="M5.3,29.6v-18C5.3,5.7,10,1,15.9,1l0,0c6.1,0,11,4.9,11,11v17.6"/>
<path class="st1" d="M24.7,14.2"/>
<path class="st1" d="M7.4,14.2"/>
<path class="st2" d="M10,29.7H4.8c-0.3,0-0.6-0.3-0.6-0.6v-3.9c0-0.2,0.2-0.4,0.4-0.4h5.1c0.2,0,0.3,0.1,0.3,0.3L10,29.7h12.1"/>
<path class="st3" d="M22.1,11.1c0-3.7-2.9-6.6-5.9-6.6h-0.3c-3.1,0-6,2.9-6,6.6H22.1z"/>
<path class="st1" d="M10,29.7"/>
<path class="st2" d="M22.1,29.7v-4.6c0-0.2,0.1-0.3,0.3-0.3h5.1c0.2,0,0.4,0.2,0.4,0.4v3.9c0,0.3-0.3,0.6-0.6,0.6H22.1"/>
<path class="st3" d="M22.1,15v4c0,3.7-2.9,6.6-6,6.6h-0.3c-3,0-5.9-2.8-6-6.5V15H22.1z"/>
</svg>
