<?xml version="1.0" encoding="UTF-8"?><svg id="Layer_1" xmlns="http://www.w3.org/2000/svg" viewBox="0 0 512 512"><defs><style>.cls-1{fill:#064e3b;}</style></defs><g id="_01_align_center"><path d="M448,265.05v-30.38c0-106.04-85.96-192-192-192S64,128.63,64,234.67v30.38C10.08,288.79-14.38,351.74,9.36,405.65c16.99,38.6,55.13,63.55,97.3,63.68h42.67v-213.33h-42.67v-21.33c0-82.47,66.86-149.33,149.33-149.33s149.33,66.86,149.33,149.33v21.33h-42.67v213.33h42.67c58.91-.18,106.52-48.07,106.35-106.99-.13-42.17-25.09-80.31-63.68-97.3ZM106.67,426.67c-35.35,0-64-28.65-64-64s28.65-64,64-64v128Zm298.67,0v-128c35.35,0,64,28.65,64,64s-28.65,64-64,64Z"/></g><path class="cls-1" d="M106.67,426.67c-35.35,0-64-28.65-64-64s28.65-64,64-64v128Z"/><path class="cls-1" d="M405.33,298.67c35.35,0,64,28.65,64,64s-28.65,64-64,64v-128Z"/></svg>