<?xml version="1.0" encoding="utf-8"?>
<!-- Generator: Adobe Illustrator 27.0.0, SVG Export Plug-In . SVG Version: 6.00 Build 0)  -->
<svg version="1.1" id="Layer_1" xmlns="http://www.w3.org/2000/svg" xmlns:xlink="http://www.w3.org/1999/xlink" x="0px" y="0px"
	 viewBox="0 0 512 512" style="enable-background:new 0 0 512 512;" xml:space="preserve">
<g id="_01_align_center">
	<path d="M448,265v-30.4c0-106-86-192-192-192s-192,86-192,192V265c-53.9,23.7-78.4,86.7-54.6,140.6c17,38.6,55.1,63.6,97.3,63.7
		h42.7V256h-42.7v-21.3c0-82.5,66.9-149.3,149.3-149.3s149.3,66.9,149.3,149.3V256h-42.7v213.3h42.7c58.9-0.2,106.5-48.1,106.3-107
		C511.6,320.2,486.6,282,448,265z M106.7,426.7c-35.3,0-64-28.7-64-64s28.7-64,64-64V426.7z M405.3,426.7v-128c35.3,0,64,28.7,64,64
		S440.7,426.7,405.3,426.7z"/>
</g>
</svg>
