<?xml version="1.0" encoding="UTF-8"?><svg id="Layer_1" xmlns="http://www.w3.org/2000/svg" viewBox="0 0 512 512.1"><defs><style>.cls-1{fill:#10b981;}</style></defs><path class="cls-1" d="M405.33,512.1H106.67c-58.82,0-106.67-47.85-106.67-106.67V207.54c0-35.52,17.58-68.59,47.02-88.43L196.33,18.34c36.25-24.45,83.09-24.45,119.34,0l149.33,100.78c29.42,19.84,47,52.89,47,88.43v197.89c0,58.82-47.85,106.67-106.67,106.67ZM256,42.7c-12.46,0-24.92,3.67-35.8,11.03L70.87,154.49c-17.66,11.9-28.2,31.72-28.2,53.03v197.89c0,35.29,28.71,64,64,64H405.33c35.29,0,64-28.71,64-64V207.54c0-21.31-10.54-41.15-28.18-53.03L291.8,53.73c-10.88-7.36-23.34-11.03-35.8-11.03Z"/></svg>