<?xml version="1.0" encoding="UTF-8"?><svg id="Layer_1" xmlns="http://www.w3.org/2000/svg" viewBox="0 0 24 24"><defs><style>.cls-1{fill:#10b981;}</style></defs><path class="cls-1" d="M24,15c0,.62-.24,1.2-.68,1.63l-2.07,2.07c-.19,.19-.45,.29-.71,.29s-.51-.1-.71-.29c-.39-.39-.39-1.02,0-1.41l1.29-1.29h-6.13c-.55,0-1-.45-1-1s.45-1,1-1h6.13l-1.29-1.29c-.39-.39-.39-1.02,0-1.41s1.02-.39,1.41,0l2.07,2.07c.44,.44,.68,1.02,.68,1.63ZM6.5,11c-.83,0-1.5,.67-1.5,1.5s.67,1.5,1.5,1.5,1.5-.67,1.5-1.5-.67-1.5-1.5-1.5Zm9.5,8v2c0,1.65-1.35,3-3,3H3c-1.65,0-3-1.35-3-3V5.62C0,3.25,1.69,1.18,4.02,.72L7.22,.08c1.18-.24,2.39,.07,3.32,.83,.38,.31,.66,.68,.9,1.09h.56c2.21,0,4,1.79,4,4v5c0,.55-.45,1-1,1s-1-.45-1-1V6c0-1.1-.9-2-2-2h0V22h1c.55,0,1-.45,1-1v-2c0-.55,.45-1,1-1s1,.45,1,1h0ZM10,4c0-.6-.27-1.16-.73-1.55-.36-.3-.81-.45-1.27-.45-.13,0-.26,.01-.4,.04l-3.2,.64c-1.4,.28-2.41,1.52-2.41,2.94v15.38c0,.55,.45,1,1,1h7s0-18,0-18Z"/></svg>