<?xml version="1.0" encoding="UTF-8"?><svg id="Layer_1" xmlns="http://www.w3.org/2000/svg" viewBox="0 0 19.5 21.5"><defs><style>.cls-1{fill-rule:evenodd;}.cls-1,.cls-2{fill:#10b981;}</style></defs><path class="cls-2" d="M3.22,11.28c-.29-.29-.29-.77,0-1.06l2-2c.29-.29,.77-.29,1.06,0,.29,.29,.29,.77,0,1.06l-.72,.72h7.19c.41,0,.75,.34,.75,.75s-.34,.75-.75,.75H5.56l.72,.72c.29,.29,.29,.77,0,1.06-.29,.29-.77,.29-1.06,0l-2-2Z"/><path class="cls-1" d="M11.7,0h1.11c1.37,0,2.47,0,3.34,.12,.9,.12,1.66,.38,2.26,.98,.6,.6,.86,1.36,.98,2.26,.12,.87,.12,1.97,.12,3.34V14.8c0,1.37,0,2.47-.12,3.34-.12,.9-.38,1.66-.98,2.26-.6,.6-1.36,.86-2.26,.98-.87,.12-1.97,.12-3.34,.12h-1.11c-1.37,0-2.47,0-3.34-.12-.9-.12-1.66-.38-2.26-.98-.4-.4-.65-.87-.81-1.4-.95,0-1.74-.01-2.39-.1-.76-.1-1.43-.33-1.95-.85-.53-.53-.75-1.19-.85-1.95C0,15.36,0,14.44,0,13.3v-5.11c0-1.13,0-2.06,.1-2.79,.1-.76,.32-1.43,.85-1.95s1.19-.75,1.95-.85c.64-.09,1.43-.1,2.39-.1,.16-.53,.41-1,.81-1.4,.6-.6,1.36-.86,2.26-.98C9.23,0,10.33,0,11.7,0ZM5,15.75c0,.64,.01,1.23,.05,1.74-.83,0-1.45-.02-1.95-.08-.6-.08-.89-.22-1.09-.43-.2-.2-.35-.5-.43-1.09-.08-.62-.08-1.44-.08-2.64v-5c0-1.2,0-2.02,.08-2.64,.08-.6,.22-.89,.43-1.09,.2-.2,.5-.35,1.09-.43,.49-.07,1.11-.08,1.95-.08-.04,.52-.05,1.1-.05,1.74,0,.41,.33,.75,.75,.75,.41,0,.75-.33,.75-.75,0-1.09,.03-1.87,.14-2.46,.1-.57,.27-.89,.51-1.14,.28-.28,.67-.46,1.4-.56,.76-.1,1.76-.1,3.19-.1h1c1.44,0,2.44,0,3.19,.1,.73,.1,1.12,.28,1.4,.56,.28,.28,.46,.67,.56,1.4,.1,.76,.1,1.76,.1,3.19V14.75c0,1.44,0,2.44-.1,3.19-.1,.73-.28,1.12-.56,1.4s-.67,.46-1.4,.56c-.76,.1-1.76,.1-3.19,.1h-1c-1.44,0-2.44,0-3.19-.1-.73-.1-1.12-.28-1.4-.56-.24-.24-.41-.57-.51-1.14-.11-.59-.14-1.36-.14-2.46,0-.41-.34-.75-.75-.75-.41,0-.75,.34-.75,.75Z"/></svg>