<?xml version="1.0" encoding="UTF-8"?><svg id="Outline" xmlns="http://www.w3.org/2000/svg" viewBox="0 0 512 469.33"><defs><style>.cls-1{fill:#10b981;}</style></defs><path class="cls-1" d="M405.33,0h-128c-58.88,.07-106.6,47.79-106.67,106.67v171.22c-18.35-14.12-40.84-21.81-64-21.89C47.76,256,0,303.76,0,362.67s47.76,106.67,106.67,106.67,106.67-47.76,106.67-106.67V106.67c0-35.35,28.65-64,64-64h128c35.35,0,64,28.65,64,64v171.22c-18.35-14.12-40.84-21.81-64-21.89-58.91,0-106.67,47.76-106.67,106.67s47.76,106.67,106.67,106.67,106.67-47.76,106.67-106.67V106.67C511.93,47.79,464.21,.07,405.33,0ZM106.67,426.67c-35.35,0-64-28.65-64-64s28.65-64,64-64,64,28.65,64,64-28.65,64-64,64Zm298.67,0c-35.35,0-64-28.65-64-64s28.65-64,64-64,64,28.65,64,64-28.65,64-64,64Z"/></svg>