<?xml version="1.0" encoding="UTF-8"?><svg id="Outline" xmlns="http://www.w3.org/2000/svg" viewBox="0 0 511.91 495.62"><path d="M508.32,183.57c-8.96-28.52-35.54-47.81-65.43-47.49h-93.21l-28.31-88.23c-11.61-36.21-50.36-56.15-86.57-44.54-21.17,6.79-37.76,23.38-44.54,44.54l-28.31,88.23H68.74C30.72,136.14-.05,167,0,205.02c.03,21.93,10.51,42.53,28.21,55.48l75.86,55.47-28.84,89.32c-9.57,28.45,.7,59.81,25.26,77.08,24.13,17.82,57.11,17.66,81.07-.41l74.26-54.66,74.28,54.59c30.63,22.53,73.72,15.96,96.25-14.66,13.12-17.83,16.86-40.88,10.06-61.94l-28.84-89.32,75.95-55.47c24.33-17.37,34.41-48.62,24.81-76.93Z"/></svg>