<?xml version="1.0" encoding="utf-8"?>
<!-- Generator: Adobe Illustrator 27.0.0, SVG Export Plug-In . SVG Version: 6.00 Build 0)  -->
<svg version="1.1" id="Outline" xmlns="http://www.w3.org/2000/svg" xmlns:xlink="http://www.w3.org/1999/xlink" x="0px" y="0px"
	 viewBox="0 0 512 512" style="enable-background:new 0 0 512 512;" xml:space="preserve">
<style type="text/css">
	.st0{fill:#134E4A;}
</style>
<path class="st0" d="M234.8,11.7c7-2.4,14.1-3.5,21.1-3.5v427.3l-74.3,54.7c-24,18.1-56.9,18.2-81.1,0.4
	C76,473.3,65.7,442,75.3,413.5l28.8-89.3l-75.9-55.5C10.5,255.8,0.1,235.2,0,213.3c0-38,30.7-68.9,68.8-68.9H162l28.3-88.2
	C197.1,35,213.7,18.4,234.8,11.7z"/>
<path class="st0" d="M512,213.2c0,22-10.5,42.5-28.2,55.5l-75.9,55.5l28.8,89.3c9.5,28.5-0.7,59.8-25.3,77.1
	c-24.2,17.8-57.1,17.7-81.1-0.4L256,435.5V8.2c7,0,14,1.1,21,3.3c21.2,6.8,37.8,23.4,44.7,44.6l28.3,88.2h93.2
	C481.3,144.3,512,175.2,512,213.2z"/>
</svg>
