<?xml version="1.0" encoding="UTF-8"?><svg id="Outline" xmlns="http://www.w3.org/2000/svg" viewBox="0 0 511.78 495.62"><defs><style>.cls-1{fill:#fff;}</style></defs><path d="M255.82,0V427.3l-74.26,54.66c-23.96,18.06-56.93,18.22-81.07,.4-24.55-17.27-34.83-48.62-25.26-77.08l28.85-89.32-75.86-55.46C10.51,247.55,.04,226.95,0,205.02c-.05-38.02,30.73-68.89,68.75-68.94h93.2l28.31-88.24c6.79-21.16,23.38-37.75,44.55-44.54C241.78,1.07,248.86,0,255.82,0Z"/><path class="cls-1" d="M255.82,0V427.3l-74.26,54.66c-23.96,18.06-56.93,18.22-81.07,.4-24.55-17.27-34.83-48.62-25.26-77.08l28.85-89.32-75.86-55.46C10.51,247.55,.04,226.95,0,205.02c-.05-38.02,30.73-68.89,68.75-68.94h93.2l28.31-88.24c6.79-21.16,23.38-37.75,44.55-44.54C241.78,1.07,248.86,0,255.82,0Z"/><path d="M255.96,0V427.3s74.26,54.66,74.26,54.66c23.96,18.06,56.93,18.22,81.07,.4,24.55-17.27,34.83-48.62,25.26-77.08l-28.85-89.32,75.86-55.46c17.71-12.95,28.18-33.55,28.22-55.48,.05-38.02-30.73-68.89-68.75-68.94h-93.2s-28.31-88.24-28.31-88.24c-6.79-21.16-23.38-37.75-44.55-44.54C270,1.07,262.92,0,255.96,0Z"/></svg>