<?xml version="1.0" encoding="utf-8"?>
<!-- Generator: Adobe Illustrator 27.0.0, SVG Export Plug-In . SVG Version: 6.00 Build 0)  -->
<svg version="1.1" id="Outline" xmlns="http://www.w3.org/2000/svg" xmlns:xlink="http://www.w3.org/1999/xlink" x="0px" y="0px"
	 viewBox="0 0 511.8 495.6" style="enable-background:new 0 0 511.8 495.6;" xml:space="preserve">
<style type="text/css">
	.st0{fill:#FFFFFF;}
</style>
<path d="M255.8,0v427.3L181.6,482c-24,18.1-56.9,18.2-81.1,0.4c-24.5-17.3-34.8-48.6-25.3-77.1l28.8-89.3l-75.9-55.5
	C10.5,247.6,0,226.9,0,205c-0.1-38,30.7-68.9,68.8-68.9h93.2l28.3-88.2c6.8-21.2,23.4-37.8,44.6-44.5C241.8,1.1,248.9,0,255.8,0z"/>
<path class="st0" d="M511.8,205c0,21.9-10.5,42.5-28.2,55.5L407.7,316l28.8,89.3c9.6,28.5-0.7,59.8-25.3,77.1
	c-24.1,17.8-57.1,17.7-81.1-0.4L256,427.3V0c7,0,14,1.1,21,3.3c21.2,6.8,37.8,23.4,44.6,44.5l28.3,88.2H443
	C481,136.1,511.8,167,511.8,205z"/>
<path class="st0" d="M234.8,3.3c7-2.2,14-3.3,21-3.3v427.3L181.6,482c-24,18.1-56.9,18.2-81.1,0.4c-24.5-17.3-34.8-48.6-25.3-77.1
	l28.9-89.3l-75.9-55.5C10.5,247.5,0,227,0,205c0-38,30.7-68.9,68.8-68.9H162l28.3-88.2C197,26.7,213.6,10.1,234.8,3.3z"/>
</svg>
