<?xml version="1.0" encoding="UTF-8"?><svg id="Outline" xmlns="http://www.w3.org/2000/svg" viewBox="0 0 512 495.66"><defs><style>.cls-1{fill:#0d9488;}</style></defs><path class="cls-1" d="M234.8,3.5c7-2.4,14.1-3.5,21.1-3.5V427.3l-74.3,54.7c-24,18.1-56.9,18.2-81.1,.4-24.5-17.3-34.8-48.6-25.2-77.1l28.8-89.3-75.9-55.5C10.5,247.6,.1,227,0,205.1c0-38,30.7-68.9,68.8-68.9h93.2l28.3-88.2c6.8-21.2,23.4-37.8,44.5-44.5Z"/><path class="cls-1" d="M512,205c0,22-10.5,42.5-28.2,55.5l-75.9,55.5,28.8,89.3c9.5,28.5-.7,59.8-25.3,77.1-24.2,17.8-57.1,17.7-81.1-.4l-74.3-54.7V0c7,0,14,1.1,21,3.3,21.2,6.8,37.8,23.4,44.7,44.6l28.3,88.2h93.2c38.1,0,68.8,30.9,68.8,68.9Z"/></svg>