<?xml version="1.0" encoding="UTF-8"?><svg id="Layer_1" xmlns="http://www.w3.org/2000/svg" viewBox="0 0 512 512"><defs><style>.cls-1{fill:#10b981;}</style></defs><path class="cls-1" d="M160,277.33c-53.02,0-96-42.98-96-96s42.98-96,96-96,96,42.98,96,96c-.06,52.99-43.01,95.94-96,96Zm0-149.33c-29.46,0-53.33,23.88-53.33,53.33s23.88,53.33,53.33,53.33,53.33-23.88,53.33-53.33-23.88-53.33-53.33-53.33Zm160,362.67v-10.67c0-88.37-71.63-160-160-160S0,391.63,0,480v10.67c0,11.78,9.55,21.33,21.33,21.33s21.33-9.55,21.33-21.33v-10.67c0-64.8,52.53-117.33,117.33-117.33s117.33,52.53,117.33,117.33v10.67c0,11.78,9.55,21.33,21.33,21.33s21.33-9.55,21.33-21.33Zm192-106.67c0-82.47-66.86-149.33-149.34-149.33-36.73,0-72.18,13.54-99.56,38.03-8.85,7.78-9.72,21.26-1.94,30.11,7.78,8.85,21.26,9.72,30.11,1.94,.1-.09,.2-.18,.3-.26,43.91-39.27,111.35-35.51,150.61,8.41,17.49,19.56,27.16,44.87,27.16,71.1,0,11.78,9.55,21.33,21.33,21.33s21.33-9.55,21.33-21.33Zm-138.67-192c-53.02,0-96-42.98-96-96S320.31,0,373.33,0s96,42.98,96,96c-.06,52.99-43.01,95.94-96,96Zm0-149.33c-29.46,0-53.33,23.88-53.33,53.33s23.88,53.33,53.33,53.33,53.33-23.88,53.33-53.33-23.88-53.33-53.33-53.33Z"/></svg>