<?xml version="1.0" encoding="UTF-8"?><svg id="Layer_1" xmlns="http://www.w3.org/2000/svg" viewBox="0 0 512 512"><defs><style>.cls-1{fill:#10b981;}</style></defs><path class="cls-1" d="M256,0C114.62,0,0,114.62,0,256s114.62,256,256,256,256-114.62,256-256C511.85,114.68,397.32,.15,256,0Zm0,469.33c-117.82,0-213.33-95.51-213.33-213.33S138.18,42.67,256,42.67s213.33,95.51,213.33,213.33c-.13,117.77-95.57,213.2-213.33,213.33Z"/><path class="cls-1" d="M256,149.33c-58.91,0-106.67,47.76-106.67,106.67s47.76,106.67,106.67,106.67,106.67-47.76,106.67-106.67c-.07-58.88-47.79-106.6-106.67-106.67Zm0,170.67c-35.35,0-64-28.65-64-64s28.65-64,64-64,64,28.65,64,64-28.65,64-64,64Z"/><circle class="cls-1" cx="256" cy="256" r="21.33"/></svg>